# xmcd CD database file
#
# Track frame offsets:
#	150
#	11770
#	25549
#	38748
#	55416
#	72682
#	86482
#	101211
#	112589
#	127237
#	141482
#
# Disc length: 2040 seconds
#
# Revision: 0
# Processed by: cddbd v1.5.2PL0 Copyright (c) Steve Scherf et al.
# Submitted via: CDex 1.70beta2
#
DISCID=9a07f60b
DTITLE=Wells, Neville - Cdn. OVCMHoF - ON - But I Was Younger Then
DYEAR=1900
DGENRE=Country
TTITLE0=You Can't Quit Now
TTITLE1=If You Will See Me Through
TTITLE2=Your Memory Hasn't Left Me
TTITLE3=Please Don't Mention Her Name
TTITLE4=But I Was Younger Then
TTITLE5=Before I Can Promis My Heart
TTITLE6=If It's Over
TTITLE7=The Wedding Pledge
TTITLE8=Just Plain Livin'
TTITLE9=Where Are You Know
TTITLE10=Jamie's Song(Dreamin' Your Life away)
EXTD=
EXTT0=
EXTT1=
EXTT2=
EXTT3=
EXTT4=
EXTT5=
EXTT6=
EXTT7=
EXTT8=
EXTT9=
EXTT10=
PLAYORDER=
